<?xml version="1.0" standalone="no"?>
<svg viewBox="0 0 200 200" xmlns="http://www.w3.org/2000/svg">
  <path fill="#0783AB" d="M40.6,-70.1C51,-64.4,56.8,-50.2,62.8,-37.1C68.9,-24.1,75.4,-12,75.3,-0.1C75.2,11.9,68.5,23.8,59.1,31C49.6,38.3,37.3,40.8,27,48.2C16.7,55.5,8.3,67.7,-3.1,73.1C-14.5,78.5,-29.1,77,-42,71.1C-54.9,65.3,-66.1,55,-69.8,42.4C-73.6,29.8,-69.7,14.9,-66.3,2C-62.8,-10.9,-59.7,-21.8,-53.2,-29.6C-46.7,-37.4,-36.9,-42.2,-27.5,-48.5C-18.1,-54.8,-9,-62.6,3,-67.8C15.1,-73.1,30.2,-75.8,40.6,-70.1Z" transform="translate(100 100)" />
</svg>
